{
	"patcher" : 	{
		"fileversion" : 1,
		"rect" : [ 342.0, 79.0, 1271.0, 872.0 ],
		"bglocked" : 0,
		"defrect" : [ 342.0, 79.0, 1271.0, 872.0 ],
		"openrect" : [ 0.0, 0.0, 0.0, 0.0 ],
		"openinpresentation" : 0,
		"default_fontsize" : 10.0,
		"default_fontface" : 0,
		"default_fontname" : "Arial",
		"gridonopen" : 0,
		"gridsize" : [ 15.0, 15.0 ],
		"gridsnaponopen" : 0,
		"toolbarvisible" : 1,
		"boxanimatetime" : 200,
		"imprint" : 0,
		"enablehscroll" : 1,
		"enablevscroll" : 1,
		"devicewidth" : 0.0,
		"boxes" : [ 			{
				"box" : 				{
					"maxclass" : "newobj",
					"text" : "t b b",
					"patching_rect" : [ 36.0, 87.0, 32.5, 18.0 ],
					"id" : "obj-6",
					"fontname" : "Arial",
					"numinlets" : 1,
					"fontsize" : 10.0,
					"numoutlets" : 2,
					"outlettype" : [ "bang", "bang" ]
				}

			}
, 			{
				"box" : 				{
					"maxclass" : "newobj",
					"text" : "delay 2000",
					"patching_rect" : [ 36.0, 65.0, 59.0, 18.0 ],
					"id" : "obj-3",
					"fontname" : "Arial",
					"numinlets" : 2,
					"fontsize" : 10.0,
					"numoutlets" : 1,
					"outlettype" : [ "bang" ]
				}

			}
, 			{
				"box" : 				{
					"maxclass" : "newobj",
					"text" : "loadbang",
					"patching_rect" : [ 100.0, 21.0, 52.0, 18.0 ],
					"id" : "obj-2",
					"fontname" : "Arial",
					"numinlets" : 1,
					"fontsize" : 10.0,
					"numoutlets" : 1,
					"outlettype" : [ "bang" ]
				}

			}
, 			{
				"box" : 				{
					"maxclass" : "comment",
					"text" : "(it should be 0 outside the mask range although not necessary)",
					"linecount" : 3,
					"patching_rect" : [ 939.0, 358.0, 138.0, 41.0 ],
					"id" : "obj-41",
					"fontname" : "Arial",
					"numinlets" : 1,
					"fontface" : 1,
					"fontsize" : 10.0,
					"numoutlets" : 0
				}

			}
, 			{
				"box" : 				{
					"maxclass" : "comment",
					"text" : "<---- 1. Change values",
					"patching_rect" : [ 551.0, 62.0, 310.0, 41.0 ],
					"id" : "obj-39",
					"fontname" : "Arial",
					"numinlets" : 1,
					"fontsize" : 30.0,
					"numoutlets" : 0
				}

			}
, 			{
				"box" : 				{
					"maxclass" : "comment",
					"text" : "<---- 2. Draw mask modulation",
					"patching_rect" : [ 664.0, 315.0, 413.0, 41.0 ],
					"id" : "obj-38",
					"fontname" : "Arial",
					"numinlets" : 1,
					"fontsize" : 30.0,
					"numoutlets" : 0
				}

			}
, 			{
				"box" : 				{
					"maxclass" : "comment",
					"text" : "Fade In / Fade Out / Modulation",
					"linecount" : 3,
					"patching_rect" : [ 669.0, 485.0, 160.0, 110.0 ],
					"bgcolor" : [ 0.0, 0.0, 0.0, 1.0 ],
					"id" : "obj-4",
					"fontname" : "Arial",
					"textcolor" : [ 1.0, 1.0, 1.0, 1.0 ],
					"numinlets" : 1,
					"frgb" : [ 1.0, 1.0, 1.0, 1.0 ],
					"fontsize" : 30.0,
					"numoutlets" : 0
				}

			}
, 			{
				"box" : 				{
					"maxclass" : "newobj",
					"text" : "p addXReadPosLine",
					"patching_rect" : [ 310.5, 240.0, 102.0, 18.0 ],
					"color" : [ 0.0, 0.0, 0.0, 1.0 ],
					"bgcolor" : [ 0.811765, 0.372549, 0.372549, 1.0 ],
					"id" : "obj-67",
					"fontname" : "Arial",
					"numinlets" : 2,
					"fontsize" : 10.0,
					"numoutlets" : 1,
					"outlettype" : [ "jit_matrix" ],
					"patcher" : 					{
						"fileversion" : 1,
						"rect" : [ 25.0, 69.0, 307.0, 343.0 ],
						"bglocked" : 0,
						"defrect" : [ 25.0, 69.0, 307.0, 343.0 ],
						"openrect" : [ 0.0, 0.0, 0.0, 0.0 ],
						"openinpresentation" : 0,
						"default_fontsize" : 10.0,
						"default_fontface" : 0,
						"default_fontname" : "Arial",
						"gridonopen" : 0,
						"gridsize" : [ 15.0, 15.0 ],
						"gridsnaponopen" : 0,
						"toolbarvisible" : 1,
						"boxanimatetime" : 200,
						"imprint" : 0,
						"enablehscroll" : 1,
						"enablevscroll" : 1,
						"devicewidth" : 0.0,
						"boxes" : [ 							{
								"box" : 								{
									"maxclass" : "newobj",
									"text" : "zmap 0 199 0 320",
									"patching_rect" : [ 76.5, 62.0, 91.0, 18.0 ],
									"id" : "obj-61",
									"fontname" : "Arial",
									"numinlets" : 5,
									"fontsize" : 10.0,
									"numoutlets" : 1,
									"outlettype" : [ "" ]
								}

							}
, 							{
								"box" : 								{
									"maxclass" : "newobj",
									"text" : "jit.matrix pupu 4 char 320 240",
									"patching_rect" : [ 41.5, 210.0, 142.0, 18.0 ],
									"id" : "obj-58",
									"fontname" : "Arial",
									"numinlets" : 1,
									"fontsize" : 10.0,
									"numoutlets" : 2,
									"outlettype" : [ "jit_matrix", "" ]
								}

							}
, 							{
								"box" : 								{
									"maxclass" : "newobj",
									"text" : "t b l",
									"patching_rect" : [ 100.5, 236.0, 32.5, 18.0 ],
									"id" : "obj-55",
									"fontname" : "Arial",
									"numinlets" : 1,
									"fontsize" : 10.0,
									"numoutlets" : 2,
									"outlettype" : [ "bang", "" ]
								}

							}
, 							{
								"box" : 								{
									"maxclass" : "newobj",
									"text" : "jit.op @op +",
									"patching_rect" : [ 41.5, 262.0, 91.0, 18.0 ],
									"id" : "obj-53",
									"fontname" : "Arial",
									"numinlets" : 2,
									"fontsize" : 10.0,
									"numoutlets" : 2,
									"outlettype" : [ "jit_matrix", "" ]
								}

							}
, 							{
								"box" : 								{
									"maxclass" : "newobj",
									"text" : "jit.lcd 4 char 320 240",
									"patching_rect" : [ 100.5, 175.0, 103.0, 18.0 ],
									"id" : "obj-42",
									"fontname" : "Arial",
									"numinlets" : 1,
									"fontsize" : 10.0,
									"numoutlets" : 2,
									"outlettype" : [ "jit_matrix", "" ]
								}

							}
, 							{
								"box" : 								{
									"maxclass" : "message",
									"text" : "clear, brgb 0 0 0, frgb 255 255 255 255",
									"patching_rect" : [ 100.5, 136.0, 183.0, 16.0 ],
									"id" : "obj-44",
									"fontname" : "Arial",
									"numinlets" : 2,
									"fontsize" : 10.0,
									"numoutlets" : 1,
									"outlettype" : [ "" ]
								}

							}
, 							{
								"box" : 								{
									"maxclass" : "newobj",
									"text" : "loadbang",
									"patching_rect" : [ 100.5, 111.0, 52.0, 18.0 ],
									"id" : "obj-46",
									"fontname" : "Arial",
									"numinlets" : 1,
									"fontsize" : 10.0,
									"numoutlets" : 1,
									"outlettype" : [ "bang" ]
								}

							}
, 							{
								"box" : 								{
									"maxclass" : "message",
									"text" : "clear, linesegment $1 0 $1 239, bang",
									"patching_rect" : [ 76.5, 90.0, 175.0, 16.0 ],
									"id" : "obj-49",
									"fontname" : "Arial",
									"numinlets" : 2,
									"fontsize" : 10.0,
									"numoutlets" : 1,
									"outlettype" : [ "" ]
								}

							}
, 							{
								"box" : 								{
									"maxclass" : "inlet",
									"patching_rect" : [ 41.5, 28.0, 25.0, 25.0 ],
									"id" : "obj-62",
									"numinlets" : 0,
									"numoutlets" : 1,
									"outlettype" : [ "jit_matrix" ],
									"comment" : ""
								}

							}
, 							{
								"box" : 								{
									"maxclass" : "inlet",
									"patching_rect" : [ 76.5, 28.0, 25.0, 25.0 ],
									"id" : "obj-64",
									"numinlets" : 0,
									"numoutlets" : 1,
									"outlettype" : [ "int" ],
									"comment" : ""
								}

							}
, 							{
								"box" : 								{
									"maxclass" : "outlet",
									"patching_rect" : [ 41.5, 291.0, 25.0, 25.0 ],
									"id" : "obj-66",
									"numinlets" : 1,
									"numoutlets" : 0,
									"comment" : ""
								}

							}
 ],
						"lines" : [ 							{
								"patchline" : 								{
									"source" : [ "obj-53", 0 ],
									"destination" : [ "obj-66", 0 ],
									"hidden" : 0,
									"midpoints" : [  ]
								}

							}
, 							{
								"patchline" : 								{
									"source" : [ "obj-64", 0 ],
									"destination" : [ "obj-61", 0 ],
									"hidden" : 0,
									"midpoints" : [  ]
								}

							}
, 							{
								"patchline" : 								{
									"source" : [ "obj-62", 0 ],
									"destination" : [ "obj-58", 0 ],
									"hidden" : 0,
									"midpoints" : [  ]
								}

							}
, 							{
								"patchline" : 								{
									"source" : [ "obj-55", 0 ],
									"destination" : [ "obj-58", 0 ],
									"hidden" : 0,
									"midpoints" : [ 110.0, 253.0, 34.5, 253.0, 34.5, 207.0, 51.0, 207.0 ]
								}

							}
, 							{
								"patchline" : 								{
									"source" : [ "obj-58", 0 ],
									"destination" : [ "obj-53", 0 ],
									"hidden" : 0,
									"midpoints" : [  ]
								}

							}
, 							{
								"patchline" : 								{
									"source" : [ "obj-42", 0 ],
									"destination" : [ "obj-55", 0 ],
									"hidden" : 0,
									"midpoints" : [  ]
								}

							}
, 							{
								"patchline" : 								{
									"source" : [ "obj-55", 1 ],
									"destination" : [ "obj-53", 1 ],
									"hidden" : 0,
									"midpoints" : [  ]
								}

							}
, 							{
								"patchline" : 								{
									"source" : [ "obj-49", 0 ],
									"destination" : [ "obj-42", 0 ],
									"hidden" : 0,
									"midpoints" : [ 86.0, 163.0, 110.0, 163.0 ]
								}

							}
, 							{
								"patchline" : 								{
									"source" : [ "obj-44", 0 ],
									"destination" : [ "obj-42", 0 ],
									"hidden" : 0,
									"midpoints" : [  ]
								}

							}
, 							{
								"patchline" : 								{
									"source" : [ "obj-46", 0 ],
									"destination" : [ "obj-44", 0 ],
									"hidden" : 0,
									"midpoints" : [  ]
								}

							}
, 							{
								"patchline" : 								{
									"source" : [ "obj-61", 0 ],
									"destination" : [ "obj-49", 0 ],
									"hidden" : 0,
									"midpoints" : [  ]
								}

							}
 ]
					}
,
					"saved_object_attributes" : 					{
						"fontname" : "Arial",
						"default_fontsize" : 10.0,
						"globalpatchername" : "",
						"fontface" : 0,
						"fontsize" : 10.0,
						"default_fontface" : 0,
						"default_fontname" : "Arial"
					}

				}

			}
, 			{
				"box" : 				{
					"maxclass" : "newobj",
					"text" : "r clearLCD",
					"patching_rect" : [ 441.0, 168.0, 58.0, 18.0 ],
					"color" : [ 0.811765, 0.372549, 0.372549, 1.0 ],
					"id" : "obj-34",
					"fontname" : "Arial",
					"numinlets" : 0,
					"fontsize" : 10.0,
					"numoutlets" : 1,
					"outlettype" : [ "" ]
				}

			}
, 			{
				"box" : 				{
					"maxclass" : "newobj",
					"text" : "jit.matrix",
					"patching_rect" : [ 100.0, 124.0, 48.0, 18.0 ],
					"id" : "obj-27",
					"fontname" : "Arial",
					"numinlets" : 1,
					"fontsize" : 10.0,
					"numoutlets" : 2,
					"outlettype" : [ "jit_matrix", "" ]
				}

			}
, 			{
				"box" : 				{
					"maxclass" : "comment",
					"text" : "<--- This number box should modulate chosen parameter of some spectral effect",
					"linecount" : 4,
					"patching_rect" : [ 659.0, 363.0, 113.0, 52.0 ],
					"id" : "obj-48",
					"fontname" : "Arial",
					"numinlets" : 1,
					"fontface" : 1,
					"fontsize" : 10.0,
					"numoutlets" : 0
				}

			}
, 			{
				"box" : 				{
					"maxclass" : "comment",
					"text" : "(That number box should be driven by X READING POSITION)",
					"linecount" : 3,
					"patching_rect" : [ 861.0, 62.0, 134.0, 41.0 ],
					"id" : "obj-47",
					"fontname" : "Arial",
					"numinlets" : 1,
					"fontface" : 1,
					"fontsize" : 10.0,
					"numoutlets" : 0
				}

			}
, 			{
				"box" : 				{
					"maxclass" : "number",
					"patching_rect" : [ 585.0, 361.0, 69.0, 29.0 ],
					"id" : "obj-45",
					"fontname" : "Arial",
					"numinlets" : 1,
					"fontsize" : 20.0,
					"numoutlets" : 2,
					"outlettype" : [ "int", "bang" ]
				}

			}
, 			{
				"box" : 				{
					"maxclass" : "newobj",
					"text" : "zl slice 4",
					"patching_rect" : [ 555.0, 137.0, 49.0, 18.0 ],
					"id" : "obj-43",
					"fontname" : "Arial",
					"numinlets" : 2,
					"fontsize" : 10.0,
					"numoutlets" : 2,
					"outlettype" : [ "", "" ]
				}

			}
, 			{
				"box" : 				{
					"maxclass" : "message",
					"text" : "getcell $1 0 0",
					"patching_rect" : [ 497.0, 96.0, 70.0, 16.0 ],
					"id" : "obj-40",
					"fontname" : "Arial",
					"numinlets" : 2,
					"fontsize" : 10.0,
					"numoutlets" : 1,
					"outlettype" : [ "" ]
				}

			}
, 			{
				"box" : 				{
					"maxclass" : "number",
					"patching_rect" : [ 497.0, 71.0, 50.0, 18.0 ],
					"bordercolor" : [ 0.0, 0.0, 0.0, 1.0 ],
					"id" : "obj-37",
					"fontname" : "Arial",
					"minimum" : 0,
					"numinlets" : 1,
					"maximum" : 199,
					"fontsize" : 10.0,
					"numoutlets" : 2,
					"outlettype" : [ "int", "bang" ]
				}

			}
, 			{
				"box" : 				{
					"maxclass" : "newobj",
					"text" : "t b l",
					"patching_rect" : [ 340.0, 138.0, 32.5, 18.0 ],
					"id" : "obj-15",
					"fontname" : "Arial",
					"numinlets" : 1,
					"fontsize" : 10.0,
					"numoutlets" : 2,
					"outlettype" : [ "bang", "" ]
				}

			}
, 			{
				"box" : 				{
					"maxclass" : "jit.pwindow",
					"patching_rect" : [ 339.0, 355.0, 320.0, 240.0 ],
					"id" : "obj-13",
					"numinlets" : 1,
					"numoutlets" : 2,
					"presentation_rect" : [ 15.0, 15.0, 320.0, 240.0 ],
					"outlettype" : [ "", "" ]
				}

			}
, 			{
				"box" : 				{
					"maxclass" : "newobj",
					"text" : "jit.op @op *",
					"patching_rect" : [ 311.0, 202.0, 62.0, 18.0 ],
					"id" : "obj-7",
					"fontname" : "Arial",
					"numinlets" : 2,
					"fontsize" : 10.0,
					"numoutlets" : 2,
					"outlettype" : [ "jit_matrix", "" ]
				}

			}
, 			{
				"box" : 				{
					"maxclass" : "comment",
					"text" : "Clear",
					"patching_rect" : [ 401.0, 168.0, 34.0, 18.0 ],
					"id" : "obj-29",
					"fontname" : "Arial",
					"numinlets" : 1,
					"fontsize" : 10.0,
					"numoutlets" : 0
				}

			}
, 			{
				"box" : 				{
					"maxclass" : "newobj",
					"text" : "p clear",
					"patching_rect" : [ 384.0, 202.0, 41.0, 18.0 ],
					"color" : [ 0.0, 0.0, 0.0, 1.0 ],
					"bgcolor" : [ 0.811765, 0.372549, 0.372549, 1.0 ],
					"id" : "obj-50",
					"fontname" : "Arial",
					"numinlets" : 1,
					"fontsize" : 10.0,
					"numoutlets" : 1,
					"outlettype" : [ "" ],
					"patcher" : 					{
						"fileversion" : 1,
						"rect" : [ 30.0, 70.0, 196.0, 203.0 ],
						"bglocked" : 0,
						"defrect" : [ 30.0, 70.0, 196.0, 203.0 ],
						"openrect" : [ 0.0, 0.0, 0.0, 0.0 ],
						"openinpresentation" : 0,
						"default_fontsize" : 10.0,
						"default_fontface" : 0,
						"default_fontname" : "Arial",
						"gridonopen" : 0,
						"gridsize" : [ 15.0, 15.0 ],
						"gridsnaponopen" : 0,
						"toolbarvisible" : 1,
						"boxanimatetime" : 200,
						"imprint" : 0,
						"enablehscroll" : 1,
						"enablevscroll" : 1,
						"devicewidth" : 0.0,
						"boxes" : [ 							{
								"box" : 								{
									"maxclass" : "newobj",
									"text" : "zl group 200",
									"patching_rect" : [ 52.0, 99.0, 66.0, 18.0 ],
									"id" : "obj-1",
									"fontname" : "Arial",
									"numinlets" : 2,
									"fontsize" : 10.0,
									"numoutlets" : 2,
									"outlettype" : [ "", "" ]
								}

							}
, 							{
								"box" : 								{
									"maxclass" : "newobj",
									"text" : "- 1",
									"patching_rect" : [ 52.0, 76.0, 30.0, 18.0 ],
									"id" : "obj-2",
									"fontname" : "Arial",
									"numinlets" : 2,
									"fontsize" : 10.0,
									"numoutlets" : 1,
									"outlettype" : [ "int" ]
								}

							}
, 							{
								"box" : 								{
									"maxclass" : "newobj",
									"text" : "Uzi 200",
									"patching_rect" : [ 25.0, 51.0, 46.0, 18.0 ],
									"id" : "obj-3",
									"fontname" : "Arial",
									"numinlets" : 2,
									"fontsize" : 10.0,
									"numoutlets" : 3,
									"outlettype" : [ "bang", "bang", "int" ]
								}

							}
, 							{
								"box" : 								{
									"maxclass" : "outlet",
									"patching_rect" : [ 52.0, 125.0, 25.0, 25.0 ],
									"id" : "obj-4",
									"numinlets" : 1,
									"numoutlets" : 0,
									"comment" : ""
								}

							}
, 							{
								"box" : 								{
									"maxclass" : "inlet",
									"patching_rect" : [ 25.0, 19.0, 25.0, 25.0 ],
									"id" : "obj-5",
									"numinlets" : 0,
									"numoutlets" : 1,
									"outlettype" : [ "" ],
									"comment" : ""
								}

							}
 ],
						"lines" : [ 							{
								"patchline" : 								{
									"source" : [ "obj-2", 0 ],
									"destination" : [ "obj-1", 0 ],
									"hidden" : 0,
									"midpoints" : [  ]
								}

							}
, 							{
								"patchline" : 								{
									"source" : [ "obj-1", 0 ],
									"destination" : [ "obj-4", 0 ],
									"hidden" : 0,
									"midpoints" : [  ]
								}

							}
, 							{
								"patchline" : 								{
									"source" : [ "obj-5", 0 ],
									"destination" : [ "obj-3", 0 ],
									"hidden" : 0,
									"midpoints" : [  ]
								}

							}
, 							{
								"patchline" : 								{
									"source" : [ "obj-3", 2 ],
									"destination" : [ "obj-2", 0 ],
									"hidden" : 0,
									"midpoints" : [  ]
								}

							}
 ]
					}
,
					"saved_object_attributes" : 					{
						"fontname" : "Arial",
						"default_fontsize" : 10.0,
						"globalpatchername" : "",
						"fontface" : 0,
						"fontsize" : 10.0,
						"default_fontface" : 0,
						"default_fontname" : "Arial"
					}

				}

			}
, 			{
				"box" : 				{
					"maxclass" : "button",
					"patching_rect" : [ 384.0, 168.0, 20.0, 20.0 ],
					"id" : "obj-54",
					"numinlets" : 1,
					"numoutlets" : 1,
					"outlettype" : [ "bang" ]
				}

			}
, 			{
				"box" : 				{
					"maxclass" : "multislider",
					"patching_rect" : [ 339.0, 315.0, 320.0, 39.0 ],
					"settype" : 0,
					"size" : 200,
					"bgcolor" : [ 0.0, 0.0, 0.0, 1.0 ],
					"id" : "obj-65",
					"setstyle" : 1,
					"peakcolor" : [ 0.498039, 0.498039, 0.498039, 1.0 ],
					"slidercolor" : [ 1.0, 1.0, 1.0, 1.0 ],
					"numinlets" : 1,
					"numoutlets" : 2,
					"setminmax" : [ 0.0, 255.0 ],
					"outlettype" : [ "", "" ],
					"contdata" : 1
				}

			}
, 			{
				"box" : 				{
					"maxclass" : "newobj",
					"text" : "jit.matrix colortable 1 char 200 1",
					"patching_rect" : [ 272.0, 95.0, 152.0, 18.0 ],
					"id" : "obj-72",
					"fontname" : "Arial",
					"numinlets" : 1,
					"fontsize" : 10.0,
					"numoutlets" : 2,
					"outlettype" : [ "jit_matrix", "" ]
				}

			}
, 			{
				"box" : 				{
					"maxclass" : "newobj",
					"text" : "jit.fill colortable 0",
					"patching_rect" : [ 272.0, 72.0, 84.0, 18.0 ],
					"id" : "obj-73",
					"fontname" : "Arial",
					"numinlets" : 1,
					"fontsize" : 10.0,
					"numoutlets" : 2,
					"outlettype" : [ "", "" ]
				}

			}
, 			{
				"box" : 				{
					"maxclass" : "jit.pwindow",
					"patching_rect" : [ 339.0, 284.0, 320.0, 30.0 ],
					"id" : "obj-74",
					"numinlets" : 1,
					"numoutlets" : 2,
					"outlettype" : [ "", "" ],
					"depthbuffer" : 0
				}

			}
, 			{
				"box" : 				{
					"maxclass" : "newobj",
					"text" : "zl reg",
					"patching_rect" : [ 311.0, 168.0, 35.0, 18.0 ],
					"id" : "obj-101",
					"fontname" : "Arial",
					"numinlets" : 2,
					"fontsize" : 10.0,
					"numoutlets" : 2,
					"outlettype" : [ "", "" ]
				}

			}
, 			{
				"box" : 				{
					"maxclass" : "panel",
					"patching_rect" : [ 264.0, 42.0, 579.0, 570.0 ],
					"bgcolor" : [ 0.694118, 0.694118, 0.694118, 1.0 ],
					"id" : "obj-68",
					"rounded" : 20,
					"numinlets" : 1,
					"numoutlets" : 0,
					"border" : 3
				}

			}
, 			{
				"box" : 				{
					"maxclass" : "message",
					"text" : "importmovie transferMatrix1.mov",
					"patching_rect" : [ 100.0, 65.0, 156.0, 16.0 ],
					"id" : "obj-1",
					"fontname" : "Arial",
					"numinlets" : 2,
					"fontsize" : 10.0,
					"numoutlets" : 1,
					"outlettype" : [ "" ]
				}

			}
 ],
		"lines" : [ 			{
				"patchline" : 				{
					"source" : [ "obj-2", 0 ],
					"destination" : [ "obj-1", 0 ],
					"hidden" : 0,
					"midpoints" : [  ]
				}

			}
, 			{
				"patchline" : 				{
					"source" : [ "obj-27", 0 ],
					"destination" : [ "obj-101", 0 ],
					"hidden" : 0,
					"midpoints" : [ 109.5, 159.0, 320.5, 159.0 ]
				}

			}
, 			{
				"patchline" : 				{
					"source" : [ "obj-1", 0 ],
					"destination" : [ "obj-27", 0 ],
					"hidden" : 0,
					"midpoints" : [  ]
				}

			}
, 			{
				"patchline" : 				{
					"source" : [ "obj-34", 0 ],
					"destination" : [ "obj-50", 0 ],
					"hidden" : 0,
					"midpoints" : [ 450.5, 191.0, 393.5, 191.0 ]
				}

			}
, 			{
				"patchline" : 				{
					"source" : [ "obj-72", 1 ],
					"destination" : [ "obj-43", 0 ],
					"hidden" : 0,
					"midpoints" : [ 414.5, 133.0, 564.5, 133.0 ]
				}

			}
, 			{
				"patchline" : 				{
					"source" : [ "obj-40", 0 ],
					"destination" : [ "obj-72", 0 ],
					"hidden" : 0,
					"midpoints" : [ 506.5, 118.0, 446.0, 118.0, 446.0, 91.0, 281.5, 91.0 ]
				}

			}
, 			{
				"patchline" : 				{
					"source" : [ "obj-72", 0 ],
					"destination" : [ "obj-74", 0 ],
					"hidden" : 0,
					"midpoints" : [ 281.5, 280.0, 348.5, 280.0 ]
				}

			}
, 			{
				"patchline" : 				{
					"source" : [ "obj-72", 0 ],
					"destination" : [ "obj-15", 0 ],
					"hidden" : 0,
					"midpoints" : [ 281.5, 122.0, 349.5, 122.0 ]
				}

			}
, 			{
				"patchline" : 				{
					"source" : [ "obj-73", 0 ],
					"destination" : [ "obj-72", 0 ],
					"hidden" : 0,
					"midpoints" : [  ]
				}

			}
, 			{
				"patchline" : 				{
					"source" : [ "obj-54", 0 ],
					"destination" : [ "obj-50", 0 ],
					"hidden" : 0,
					"midpoints" : [  ]
				}

			}
, 			{
				"patchline" : 				{
					"source" : [ "obj-15", 1 ],
					"destination" : [ "obj-7", 1 ],
					"hidden" : 0,
					"midpoints" : [  ]
				}

			}
, 			{
				"patchline" : 				{
					"source" : [ "obj-65", 0 ],
					"destination" : [ "obj-73", 0 ],
					"hidden" : 0,
					"midpoints" : [ 348.5, 274.0, 658.0, 274.0, 658.0, 64.0, 281.5, 64.0 ]
				}

			}
, 			{
				"patchline" : 				{
					"source" : [ "obj-50", 0 ],
					"destination" : [ "obj-65", 0 ],
					"hidden" : 0,
					"midpoints" : [ 393.5, 233.0, 348.5, 233.0 ]
				}

			}
, 			{
				"patchline" : 				{
					"source" : [ "obj-37", 0 ],
					"destination" : [ "obj-40", 0 ],
					"hidden" : 0,
					"midpoints" : [  ]
				}

			}
, 			{
				"patchline" : 				{
					"source" : [ "obj-43", 1 ],
					"destination" : [ "obj-45", 0 ],
					"hidden" : 0,
					"midpoints" : [  ]
				}

			}
, 			{
				"patchline" : 				{
					"source" : [ "obj-15", 0 ],
					"destination" : [ "obj-101", 0 ],
					"hidden" : 0,
					"midpoints" : [ 349.5, 159.0, 320.5, 159.0 ]
				}

			}
, 			{
				"patchline" : 				{
					"source" : [ "obj-7", 0 ],
					"destination" : [ "obj-67", 0 ],
					"hidden" : 0,
					"midpoints" : [  ]
				}

			}
, 			{
				"patchline" : 				{
					"source" : [ "obj-67", 0 ],
					"destination" : [ "obj-13", 0 ],
					"hidden" : 0,
					"midpoints" : [ 320.0, 352.0, 348.5, 352.0 ]
				}

			}
, 			{
				"patchline" : 				{
					"source" : [ "obj-37", 0 ],
					"destination" : [ "obj-67", 1 ],
					"hidden" : 0,
					"midpoints" : [ 506.5, 93.0, 498.0, 93.0, 498.0, 235.0, 403.0, 235.0 ]
				}

			}
, 			{
				"patchline" : 				{
					"source" : [ "obj-101", 0 ],
					"destination" : [ "obj-7", 0 ],
					"hidden" : 0,
					"midpoints" : [  ]
				}

			}
, 			{
				"patchline" : 				{
					"source" : [ "obj-2", 0 ],
					"destination" : [ "obj-3", 0 ],
					"hidden" : 0,
					"midpoints" : [ 109.5, 51.0, 45.5, 51.0 ]
				}

			}
, 			{
				"patchline" : 				{
					"source" : [ "obj-6", 1 ],
					"destination" : [ "obj-27", 0 ],
					"hidden" : 0,
					"midpoints" : [ 59.0, 114.0, 109.5, 114.0 ]
				}

			}
, 			{
				"patchline" : 				{
					"source" : [ "obj-3", 0 ],
					"destination" : [ "obj-6", 0 ],
					"hidden" : 0,
					"midpoints" : [  ]
				}

			}
, 			{
				"patchline" : 				{
					"source" : [ "obj-6", 0 ],
					"destination" : [ "obj-54", 0 ],
					"hidden" : 0,
					"midpoints" : [ 45.5, 118.0, 393.5, 118.0 ]
				}

			}
 ]
	}

}
